General
Complete name                    : Cloverfield.mkv
Format                           : Matroska
File size                        : 1.19 GiB
Duration                         : 1h 21mn
Overall bit rate                 : 2 096 Kbps
Writing application              : HandBrake 0.9.4

Video
ID                               : 1
Format                           : AVC
Codec ID                         : V_MPEG4/ISO/AVC
Duration                         : 1h 21mn
Bit rate                         : 1 607 Kbps
Width                            : 720 pixels
Height                           : 570 pixels
Display aspect ratio             : 16:9
Frame rate                       : 25.000 fps
Resolution                       : 8 bits
Colorimetry                      : 4:2:0
Scan type                        : Progressive
Bits/(Pixel*Frame)               : 0.157
Stream size                      : 933 MiB (77%)
Writing library                  : x264 core 79


Audio
ID                               : 2
Format                           : AC-3
Format/Info                      : Audio Coding 3
Codec ID                         : A_AC3
Duration                         : 1h 21mn
Bit rate mode                    : Constant
Bit rate                         : 448 Kbps
Channel(s)                       : 6 channels
Channel positions                : Front: L C R, Surround: L R, LFE
Sampling rate                    : 48.0 KHz
Stream size                      : 260 MiB (21%)
Language                         : English

Text #1
Language                         : Arabic

Text #2
Language                         : Bulgarian

Text #3
Language                         : Czech

Text #4
Language                         : Greek

Text #5
Language                         : English

Text #6
Language                         : ??????XXXXXX??????

Text #7
Language                         : Croatian

Text #8
Language                         : Icelandic

Text #9
Language                         : Hungarian

Text #10
Language                         : Polish

Text #11
Language                         : Portuguese

Text #12
Language                         : Romanian

Text #13
Language                         : Slovenian

Text #14
Language                         : Slovak

Text #15
Language                         : Serbian


